# xmcd
#
# Track frame offsets: 
#        150
#        24457
#        49585
#        74323
#        103201
#        130281
#        155442
#        180500
#        208077
#        227929
#        250963
#        269935
#        291915
#        317002
#
# Disc length: 4559 seconds
#
# Revision: 0
# Processed by: cddbd v1.5.2PL0 Copyright (c) Steve Scherf et al.
# Submitted via: ExactAudioCopy v1.0b3
#
DISCID=d711cd0e
DTITLE=Nadeem Shravan's Songs ~Submitted By Nahid - Andaaz
DYEAR=2001
DGENRE=Blues
TTITLE0=Kumar Sanu and Alka Yagnik - Kisi Se Tum Pyar Karo
TTITLE1=Kumar Sanu - Kitna Paagal Dil Hai
TTITLE2=Sonu  Nigam and Alka Yagnik - Allah Kare Dil Na Lage
TTITLE3=Sonu  Nigam, Alka Yagnik, Sapna Mukherjee and Kailash Kher - Rab
TTITLE3=ba Ishq Na Hove
TTITLE4=Udit Narayan and Alka Yagnik - Aaj Kehna Zaroori Hai
TTITLE5=Babul Suriyo and Alka Yagnik - Aayega Maza Ab Barsaat Ka
TTITLE6=Alka Yagnik - Kitna Paagal Dil Hai
TTITLE7=Shaan, Allka Yagnik and Chorus - Shala La Baby
TTITLE8=Kumar Sanu, Alka Yagnik - Kisi Se Tum Pyar Karo (Sad)
TTITLE9=Alisha Chinoi, Udit Narayan, Ishq and Chorus - Shaadi Jo Kiya Ha
TTITLE9=i Tu Ne (Barsaat Unreleased)
TTITLE10=Babul Supriyo and Anupama - Payr Ka Tohfa (Remix)
TTITLE11=Kumar Sanu and Kavita Krishnamurthy - Saanwli O Saanwli (Remix)
TTITLE11=Koi Kisi Se Kam Nahin
TTITLE12=Hasan Jahangir - Apun Ka To Dil Hai (Solah Satra)
TTITLE13=Kumar Sanu and Alka Yagnik - Tere Aane Se Aaye (Remix) - Run
EXTD=
EXTT0=
EXTT1=
EXTT2=
EXTT3=
EXTT4=
EXTT5=
EXTT6=
EXTT7=
EXTT8=
EXTT9=
EXTT10=
EXTT11=
EXTT12=
EXTT13=
PLAYORDER=
